<?xml version="1.0" standalone="no"?>
<!DOCTYPE svg PUBLIC "-//W3C//DTD SVG 20010904//EN"
 "http://www.w3.org/TR/2001/REC-SVG-20010904/DTD/svg10.dtd">
<svg version="1.0" xmlns="http://www.w3.org/2000/svg"
 width="1024.000000pt" height="1024.000000pt" viewBox="0 0 1024.000000 1024.000000"
 preserveAspectRatio="xMidYMid meet">
<metadata>
Created by potrace 1.14, written by Peter Selinger 2001-2017
</metadata>
<g transform="translate(0.000000,1024.000000) scale(0.100000,-0.100000)"
fill="#000000" stroke="none">
<path d="M4806 10083 c-8 -9 -11 -9 -126 -17 -52 -4 -104 -9 -115 -11 -11 -3
-42 -7 -70 -10 -27 -2 -59 -6 -70 -8 -11 -3 -45 -8 -75 -12 -30 -4 -64 -9 -75
-11 -11 -2 -31 -6 -45 -9 -14 -2 -38 -7 -55 -9 -16 -3 -41 -8 -55 -12 -14 -3
-34 -7 -45 -9 -11 -2 -20 -4 -20 -5 0 -2 -18 -6 -60 -13 -16 -3 -42 -10 -57
-16 -16 -6 -28 -9 -28 -6 0 2 -29 -5 -65 -15 -36 -10 -65 -16 -65 -12 0 4 -4
2 -8 -3 -6 -8 -65 -28 -152 -50 -8 -2 -17 -4 -20 -5 -3 -1 -8 -2 -12 -1 -5 0
-8 -4 -8 -9 0 -5 -3 -9 -7 -8 -14 4 -133 -36 -133 -44 0 -5 -4 -7 -9 -3 -5 3
-25 -1 -43 -9 -28 -12 -57 -24 -78 -31 -3 -1 -18 -7 -35 -14 -46 -20 -80 -33
-80 -31 0 1 -22 -9 -50 -23 -27 -14 -53 -23 -57 -21 -4 3 -8 0 -8 -5 0 -6 -4
-11 -9 -11 -4 0 -39 -14 -77 -31 -38 -17 -71 -31 -73 -29 -2 1 -7 -2 -10 -7
-3 -4 -49 -30 -101 -57 -52 -27 -98 -54 -102 -60 -4 -6 -8 -8 -8 -4 0 4 -23
-6 -50 -22 -28 -17 -55 -30 -60 -30 -6 0 -10 -4 -10 -10 0 -5 -7 -10 -15 -10
-8 0 -15 -4 -15 -10 0 -5 -7 -10 -15 -10 -8 0 -15 -5 -15 -11 0 -5 -4 -8 -9
-5 -4 3 -21 -6 -37 -19 -16 -14 -35 -25 -41 -25 -7 0 -13 -4 -13 -10 0 -5 -11
-12 -24 -16 -14 -3 -27 -12 -30 -20 -3 -8 -12 -14 -21 -14 -8 0 -15 -4 -15
-10 0 -5 -7 -10 -15 -10 -8 0 -15 -4 -15 -10 0 -5 -7 -10 -15 -10 -9 0 -18 -7
-21 -15 -4 -8 -12 -15 -20 -15 -8 0 -14 -4 -14 -9 0 -5 -8 -12 -17 -15 -16 -5
-36 -20 -90 -66 -7 -6 -13 -8 -13 -5 0 3 -9 -3 -19 -12 -48 -45 -82 -73 -87
-73 -5 0 -22 -13 -62 -50 -15 -14 -43 -38 -62 -54 -99 -81 -410 -378 -410
-392 0 -2 -12 -17 -28 -32 -30 -31 -107 -117 -136 -153 -10 -13 -41 -50 -68
-81 -27 -32 -47 -58 -44 -58 3 0 -2 -8 -12 -18 -26 -28 -43 -50 -97 -127 -27
-38 -53 -71 -57 -73 -5 -2 -8 -10 -8 -18 0 -8 -4 -14 -10 -14 -5 0 -10 -7 -10
-15 0 -8 -4 -15 -10 -15 -5 0 -10 -7 -10 -15 0 -8 -4 -15 -10 -15 -5 0 -10 -4
-10 -10 0 -5 -16 -32 -35 -59 -19 -26 -35 -53 -35 -60 0 -6 -3 -11 -8 -11 -4
0 -13 -14 -20 -30 -8 -17 -19 -36 -25 -43 -7 -7 -19 -26 -28 -42 -44 -84 -65
-121 -74 -127 -5 -4 -6 -8 -1 -8 5 0 2 -8 -6 -17 -8 -10 -26 -42 -38 -70 -13
-29 -27 -53 -32 -53 -4 0 -8 -7 -8 -15 0 -16 -37 -96 -49 -105 -3 -3 -8 -14
-9 -25 -2 -11 -8 -23 -14 -26 -5 -3 -10 -10 -11 -15 -2 -10 -2 -10 -77 6 -123
27 -145 30 -162 24 -10 -3 -18 -14 -18 -24 0 -16 16 -31 71 -65 60 -37 129
-86 129 -90 0 -3 -7 -19 -15 -35 -9 -17 -15 -31 -15 -32 1 -3 -6 -25 -32 -93
-11 -27 -29 -77 -40 -110 -10 -33 -23 -69 -27 -80 -12 -29 -44 -137 -48 -160
-2 -11 -7 -31 -13 -45 -10 -27 -49 -179 -56 -220 -3 -14 -8 -34 -11 -45 -4
-11 -8 -27 -8 -35 -1 -8 -6 -40 -13 -70 -6 -30 -14 -66 -16 -80 -3 -14 -7 -36
-11 -50 -3 -14 -8 -45 -11 -70 -2 -25 -7 -58 -10 -75 -2 -16 -7 -52 -10 -80
-3 -27 -7 -61 -10 -75 -13 -68 -19 -245 -19 -545 0 -330 4 -411 29 -610 17
-146 18 -147 31 -205 3 -14 7 -45 10 -69 2 -24 7 -51 10 -61 6 -19 12 -45 21
-95 2 -16 10 -48 16 -70 6 -22 12 -47 13 -55 1 -8 12 -51 24 -95 12 -44 24
-89 26 -101 3 -12 11 -40 19 -63 9 -22 13 -41 9 -41 -3 0 -1 -6 5 -13 6 -7 13
-24 16 -39 2 -14 9 -36 16 -47 6 -12 8 -21 4 -21 -3 0 -2 -6 3 -12 8 -11 22
-49 27 -78 2 -8 47 -121 62 -157 8 -17 14 -35 14 -40 0 -4 11 -30 25 -57 14
-27 25 -53 25 -58 0 -5 31 -74 70 -153 38 -80 69 -148 69 -151 0 -4 3 -10 8
-13 4 -3 19 -28 33 -56 14 -27 31 -56 38 -63 6 -7 12 -18 12 -23 0 -6 16 -35
35 -65 19 -30 35 -57 35 -60 0 -2 8 -17 19 -32 22 -32 79 -120 139 -215 13
-20 29 -37 35 -37 6 0 8 -3 4 -6 -6 -6 41 -76 56 -82 4 -2 7 -8 7 -13 0 -5 8
-18 18 -28 33 -37 42 -50 42 -61 0 -6 5 -8 10 -5 6 3 10 0 10 -7 0 -7 14 -28
31 -46 16 -17 28 -32 25 -32 -3 0 9 -16 27 -35 17 -20 48 -54 67 -77 19 -23
54 -62 78 -86 23 -24 42 -46 42 -49 0 -14 324 -324 431 -413 29 -25 64 -55 77
-67 12 -13 30 -23 39 -23 9 0 13 -3 10 -6 -7 -7 74 -70 86 -66 4 1 7 -2 7 -7
0 -10 199 -155 275 -201 22 -13 42 -27 45 -31 3 -4 21 -16 41 -27 76 -42 84
-47 89 -52 10 -10 65 -41 83 -47 9 -3 17 -9 17 -14 0 -5 9 -9 20 -9 11 0 20
-4 20 -10 0 -5 6 -10 14 -10 7 0 19 -7 26 -15 7 -9 15 -13 18 -10 3 3 10 1 16
-4 17 -14 168 -91 179 -91 5 0 22 -9 38 -21 16 -11 29 -18 29 -15 0 3 25 -8
57 -24 31 -16 60 -27 65 -24 4 3 8 1 8 -4 0 -9 119 -58 133 -54 4 1 7 -3 7
-10 0 -6 3 -9 6 -5 4 3 23 -2 43 -12 20 -10 50 -22 66 -26 35 -10 34 -9 60
-19 45 -17 50 -19 58 -21 4 -2 9 -4 12 -5 3 -1 10 -4 15 -5 6 -1 12 -4 15 -5
3 -1 8 -3 13 -4 28 -8 100 -30 117 -36 11 -4 38 -13 60 -19 22 -6 73 -20 113
-31 40 -12 77 -18 82 -15 6 3 10 1 10 -6 0 -7 3 -10 6 -6 3 3 26 -1 51 -8 26
-8 49 -14 52 -13 3 0 8 -1 11 -2 6 -2 24 -6 65 -13 17 -3 42 -8 56 -11 14 -3
41 -8 60 -10 19 -3 34 -5 34 -6 0 -1 11 -3 25 -5 14 -2 41 -6 60 -9 71 -11
136 -19 172 -20 21 0 38 -4 38 -8 0 -3 16 -5 35 -4 21 2 35 -1 35 -8 0 -6 4
-5 9 3 6 8 14 10 22 5 8 -5 39 -9 69 -10 30 -1 55 -3 55 -4 0 -8 83 -4 94 4
11 8 13 8 7 -2 -6 -10 42 -12 246 -8 312 5 408 9 408 17 0 3 15 6 33 5 17 0
59 4 92 8 33 5 84 9 112 10 29 0 53 4 53 7 0 4 21 9 48 13 26 3 61 9 77 12 17
3 39 7 50 8 12 1 25 5 30 7 6 3 25 6 44 8 19 1 40 6 46 11 7 5 14 8 17 5 2 -3
20 0 39 5 19 6 45 12 59 15 14 3 52 12 85 21 33 8 67 17 76 19 37 8 171 49
264 81 55 19 108 37 117 39 9 2 26 9 37 15 12 6 21 8 21 4 0 -3 7 -1 15 6 8 7
15 9 15 4 0 -5 4 -4 8 1 9 14 122 57 122 47 0 -4 4 -1 9 6 4 7 14 14 22 16 8
1 24 7 35 14 12 6 24 8 28 5 3 -3 6 -2 6 4 0 9 11 15 43 21 18 4 399 203 460
240 37 23 67 39 67 36 0 -3 7 1 15 8 31 28 44 38 51 38 10 0 271 177 297 200
11 11 29 22 39 26 10 3 18 10 18 15 0 5 8 13 17 16 16 6 25 13 76 56 12 10 38
31 57 45 19 15 44 37 57 49 13 12 23 20 23 18 0 -2 18 13 40 35 22 22 40 37
40 35 0 -15 362 347 416 417 12 15 24 24 28 21 3 -3 6 -1 6 5 0 6 10 22 23 35
12 14 34 40 49 58 14 19 35 44 45 56 11 12 28 34 39 48 10 15 24 32 29 39 28
31 75 95 75 101 0 4 11 18 24 30 14 13 22 26 19 29 -4 3 -1 6 5 6 7 0 12 6 12
13 0 8 11 24 25 37 14 13 25 27 25 32 0 7 56 96 78 123 5 6 21 33 37 60 16 28
33 52 37 53 4 2 8 8 8 12 0 5 28 57 62 116 34 59 61 114 61 121 0 7 4 13 9 13
9 0 31 53 28 66 -1 4 4 10 11 15 7 4 14 16 15 26 2 9 8 19 13 21 6 2 11 10 11
19 0 8 9 27 20 43 11 15 17 30 13 33 -3 4 0 14 7 22 13 15 58 116 63 140 1 6
5 13 10 16 4 3 9 14 11 25 3 10 18 51 34 89 16 39 30 75 32 80 5 20 12 40 18
55 8 21 8 21 17 55 4 17 10 35 14 40 3 6 7 17 8 26 1 9 8 29 14 45 14 33 15
36 29 89 6 22 12 45 14 50 1 6 5 19 9 30 8 27 19 76 20 98 1 9 4 17 7 17 4 0
7 6 7 13 1 6 11 55 23 107 12 52 23 106 25 120 2 14 4 25 5 25 3 0 10 49 13
83 1 17 5 32 9 32 4 0 6 8 6 18 0 9 3 40 7 67 4 28 9 61 10 75 2 14 4 25 5 25
1 0 4 18 5 40 2 22 6 63 9 90 28 242 29 777 1 1035 -2 14 -4 25 -5 25 -1 0 -3
18 -5 40 -4 62 -26 207 -41 275 -3 14 -7 34 -8 45 -2 11 -6 36 -10 55 -3 19
-8 46 -10 60 -2 14 -9 45 -16 70 -7 25 -13 53 -12 63 0 9 -3 17 -7 17 -5 0 -7
10 -7 23 1 12 0 27 -3 32 -3 6 -6 12 -7 15 -1 11 -25 97 -33 120 -13 38 -32
103 -35 120 -2 8 -6 22 -9 30 -3 8 -15 44 -27 80 -11 36 -25 73 -30 82 -6 10
-10 26 -10 37 0 11 -3 21 -7 23 -5 2 -16 28 -27 58 -10 30 -27 74 -37 97 -10
23 -19 44 -19 47 0 8 -57 132 -118 256 -31 63 -56 118 -54 123 1 4 -3 7 -8 7
-6 0 -10 7 -10 15 0 8 -4 15 -9 15 -8 0 -17 20 -26 57 -2 7 -10 19 -18 27 -7
8 -20 28 -27 45 -7 17 -16 31 -21 31 -5 0 -9 9 -9 20 0 11 -4 20 -8 20 -5 0
-16 15 -25 33 -30 57 -59 102 -71 109 -6 4 -7 8 -1 8 7 0 7 3 0 8 -15 11 -55
70 -55 82 0 5 -4 10 -8 10 -5 0 -14 10 -19 23 -6 12 -18 31 -27 42 -9 11 -34
45 -56 75 -22 30 -43 60 -47 65 -5 6 -24 30 -43 55 -19 25 -39 50 -45 56 -5 6
-21 26 -35 44 -14 19 -40 49 -57 68 -18 18 -33 36 -33 39 0 3 -12 18 -26 32
-14 14 -61 64 -104 111 -87 93 -82 78 -61 203 6 31 13 62 16 67 3 5 8 29 11
52 3 23 10 50 15 60 5 10 7 22 4 27 -3 5 -1 22 5 36 6 15 12 42 15 59 2 17 9
58 16 91 6 33 12 73 14 88 2 15 6 40 10 55 4 15 9 38 11 52 2 14 5 41 8 60 2
20 9 54 15 77 6 23 10 45 9 50 -1 4 2 23 6 42 5 18 9 48 11 65 1 17 10 78 20
136 10 58 19 116 21 130 11 88 14 110 20 153 l7 48 -29 -7 c-16 -4 -30 -7 -31
-8 -3 -1 -365 -355 -677 -660 l-209 -205 -47 34 c-26 19 -53 35 -59 35 -6 0
-11 5 -11 10 0 6 -5 10 -10 10 -6 0 -16 5 -23 10 -19 16 -78 54 -158 101 -41
24 -87 52 -104 61 -16 10 -42 23 -57 29 -16 6 -28 15 -28 20 0 5 -8 9 -19 9
-10 0 -24 7 -31 15 -7 8 -21 15 -31 15 -11 0 -19 4 -19 8 0 8 -60 36 -72 33
-5 0 -8 4 -8 10 0 5 -4 7 -10 4 -5 -3 -10 -1 -10 5 0 6 -4 8 -10 5 -5 -3 -10
-1 -10 5 0 6 -4 8 -10 5 -5 -3 -10 -1 -10 4 0 6 -3 10 -7 9 -5 -1 -30 8 -58
21 -113 53 -168 75 -177 73 -5 -1 -8 2 -8 8 0 6 -3 9 -7 9 -5 -1 -11 0 -15 1
-5 1 -11 3 -15 5 -15 4 -48 17 -92 37 -24 10 -46 17 -49 14 -3 -4 -15 0 -26 7
-12 8 -33 17 -48 20 -15 4 -40 12 -55 19 -15 6 -30 12 -33 13 -30 9 -97 28
-105 29 -5 1 -16 6 -24 10 -8 5 -24 10 -35 11 -12 1 -28 5 -36 8 -14 5 -65 17
-75 18 -3 0 -23 6 -45 14 -22 8 -40 12 -40 10 0 -3 -12 0 -27 6 -16 6 -39 12
-53 15 -14 2 -36 6 -50 9 -14 4 -38 8 -55 11 -16 2 -41 7 -55 11 -39 10 -52
12 -100 18 -25 3 -52 7 -60 9 -17 5 -93 16 -217 30 -78 10 -189 19 -225 20
-21 0 -38 5 -38 11 0 5 -5 3 -10 -5 -9 -13 -10 -13 -10 0 0 13 -1 13 -10 0 -5
-8 -10 -10 -10 -5 0 6 -9 11 -20 12 -13 1 -18 -2 -13 -10 5 -9 3 -9 -8 0 -21
17 -386 18 -407 1 -9 -7 -13 -8 -9 -2 4 8 -3 11 -23 10 -17 0 -30 -5 -30 -11
0 -5 -4 -4 -9 4 -6 9 -10 10 -16 2 -5 -8 -11 -9 -19 -2 -7 6 -16 8 -20 4z"/>
</g>
</svg>
